<svg width="80" height="53" viewBox="0 0 80 53" fill="none" xmlns="http://www.w3.org/2000/svg">
<path d="M14.5412 12.2497H11.3327C11.274 11.8346 11.1544 11.4658 10.9737 11.1435C10.793 10.8163 10.561 10.5379 10.2778 10.3084C9.99451 10.0789 9.66731 9.90305 9.29614 9.78095C8.92987 9.65886 8.53184 9.59782 8.10208 9.59782C7.32557 9.59782 6.64917 9.79072 6.0729 10.1765C5.49662 10.5575 5.04976 11.1142 4.73232 11.8468C4.41488 12.5744 4.25615 13.4584 4.25615 14.4986C4.25615 15.5682 4.41488 16.4668 4.73232 17.1944C5.05464 17.9221 5.50394 18.4715 6.08022 18.8427C6.6565 19.2138 7.32313 19.3994 8.0801 19.3994C8.50498 19.3994 8.89812 19.3433 9.25952 19.2309C9.6258 19.1186 9.95056 18.955 10.2338 18.7401C10.5171 18.5204 10.7515 18.2542 10.9371 17.9416C11.1275 17.6291 11.2594 17.2726 11.3327 16.8721L14.5412 16.8868C14.4582 17.5754 14.2507 18.2395 13.9186 18.8793C13.5914 19.5142 13.1494 20.0831 12.5926 20.5862C12.0408 21.0843 11.3815 21.4799 10.6147 21.7729C9.85289 22.061 8.99091 22.2051 8.02882 22.2051C6.69068 22.2051 5.49418 21.9023 4.43929 21.2967C3.3893 20.6912 2.55906 19.8145 1.9486 18.6669C1.34302 17.5192 1.04023 16.1298 1.04023 14.4986C1.04023 12.8626 1.3479 11.4707 1.96325 10.323C2.5786 9.17537 3.41371 8.30119 4.4686 7.70049C5.52348 7.09491 6.71022 6.79212 8.02882 6.79212C8.89812 6.79212 9.70393 6.91422 10.4463 7.1584C11.1935 7.40259 11.8552 7.7591 12.4315 8.22793C13.0078 8.69189 13.4766 9.26084 13.838 9.93479C14.2043 10.6087 14.4387 11.3804 14.5412 12.2497ZM17.6754 22V6.99724H23.5944C24.7275 6.99724 25.6944 7.19991 26.4954 7.60526C27.3012 8.00573 27.9141 8.57468 28.3341 9.31212C28.759 10.0447 28.9714 10.9066 28.9714 11.898C28.9714 12.8943 28.7565 13.7514 28.3267 14.4693C27.897 15.1823 27.2743 15.7293 26.4587 16.1102C25.648 16.4912 24.6664 16.6816 23.5138 16.6816H19.5507V14.1323H23.0011C23.6066 14.1323 24.1097 14.0493 24.5101 13.8833C24.9106 13.7172 25.2085 13.4682 25.4038 13.1361C25.6041 12.804 25.7042 12.3913 25.7042 11.898C25.7042 11.3999 25.6041 10.9799 25.4038 10.638C25.2085 10.2962 24.9081 10.0373 24.5028 9.86154C24.1023 9.68084 23.5969 9.59049 22.9864 9.59049H20.8473V22H17.6754ZM25.7774 15.1726L29.5062 22H26.0045L22.3564 15.1726H25.7774ZM32.0726 6.99724H35.9844L40.116 17.0772H40.2918L44.4235 6.99724H48.3353V22H45.2586V12.235H45.134L41.2515 21.9267H39.1564L35.2738 12.1984H35.1493V22H32.0726V6.99724ZM1.30395 51V35.9972H7.22301C8.36091 35.9972 9.33033 36.2146 10.1313 36.6492C10.9322 37.079 11.5427 37.6772 11.9627 38.444C12.3875 39.2058 12.6 40.0849 12.6 41.0812C12.6 42.0775 12.3851 42.9565 11.9553 43.7184C11.5256 44.4802 10.9029 45.0736 10.0873 45.4985C9.27661 45.9234 8.29498 46.1358 7.14243 46.1358H3.36976V43.5939H6.62964C7.2401 43.5939 7.74312 43.4889 8.1387 43.2789C8.53917 43.064 8.83708 42.7685 9.03242 42.3925C9.23266 42.0115 9.33277 41.5744 9.33277 41.0812C9.33277 40.583 9.23266 40.1484 9.03242 39.7772C8.83708 39.4012 8.53917 39.1106 8.1387 38.9055C7.73824 38.6955 7.23033 38.5905 6.61499 38.5905H4.47592V51H1.30395ZM16.3733 51H12.9742L18.1534 35.9972H22.241L27.4129 51H24.0138L20.2558 39.4256H20.1386L16.3733 51ZM16.1608 45.1029H24.1896V47.579H16.1608V45.1029ZM42.6269 35.9972V51H39.8871L33.36 41.5573H33.2501V51H30.0782V35.9972H32.8619L39.3377 45.4326H39.4695V35.9972H42.6269ZM46.1071 51V35.9972H56.2164V38.6125H49.2791V42.1873H55.6963V44.8026H49.2791V48.3848H56.2457V51H46.1071ZM59.5978 51V35.9972H62.7697V48.3848H69.2016V51H59.5978Z" fill="white"/>
</svg>
